{
    "asset" : {
        "copyright" : "Nicholas Piscioneri",
        "generator" : "Khronos glTF Blender I/O v1.8.19",
        "version" : "2.0"
    },
    "scene" : 0,
    "scenes" : [
        {
            "name" : "Scene",
            "nodes" : [
                0,
                18
            ]
        }
    ],
    "nodes" : [
        {
            "mesh" : 0,
            "name" : "mesh39",
            "rotation" : [
                0.18268895149230957,
                0.1826888769865036,
                -0.6830994486808777,
                0.6830994486808777
            ],
            "translation" : [
                -0.31775134801864624,
                0,
                1.8283351892023347e-05
            ]
        },
        {
            "name" : "Arm Bone",
            "rotation" : [
                5.023240987611644e-07,
                1.8606516505315085e-07,
                -0.0026330070104449987,
                0.999996542930603
            ],
            "scale" : [
                1.0000001192092896,
                0.9999998807907104,
                1
            ],
            "translation" : [
                -7.455466288774915e-08,
                0.7298170328140259,
                -5.960464477539063e-08
            ]
        },
        {
            "children" : [
                1
            ],
            "name" : "Paddle Bone",
            "rotation" : [
                7.134578936529579e-07,
                3.498847718219622e-07,
                2.496279550255609e-13,
                1
            ],
            "scale" : [
                5.470026016235352,
                5.470026016235352,
                5.470026016235352
            ],
            "translation" : [
                2.1704628620136527e-31,
                0.5353870391845703,
                -4.76837158203125e-07
            ]
        },
        {
            "children" : [
                2
            ],
            "name" : "Paddle Bone.001",
            "rotation" : [
                5.644444627250778e-07,
                -0.7071071863174438,
                -0.7071064710617065,
                5.644449743158475e-07
            ],
            "scale" : [
                0.18281449377536774,
                0.18281449377536774,
                0.18281449377536774
            ],
            "translation" : [
                0.0033521424047648907,
                0.8207254409790039,
                -2.1470658779144287
            ]
        },
        {
            "name" : "Rotator Bone",
            "rotation" : [
                0,
                0,
                1,
                0
            ],
            "translation" : [
                1.0128132998943329e-08,
                0.6941402554512024,
                -0.9597060680389404
            ]
        },
        {
            "name" : "Rotator Bone.002",
            "rotation" : [
                0,
                0,
                -0.7071068286895752,
                0.7071067094802856
            ],
            "translation" : [
                -0.6941403150558472,
                -3.507011570036411e-08,
                -0.9597060680389404
            ]
        },
        {
            "name" : "Rotator Bone.003",
            "rotation" : [
                0,
                0,
                -1.564621925354004e-07,
                1
            ],
            "translation" : [
                -1.6868580132722855e-07,
                -0.6941400170326233,
                -0.9597060680389404
            ]
        },
        {
            "name" : "Rotator Bone.004",
            "rotation" : [
                0,
                0,
                0.7071067094802856,
                0.7071068286895752
            ],
            "translation" : [
                0.6941400170326233,
                -1.2447708286345005e-07,
                -0.9597060680389404
            ]
        },
        {
            "children" : [
                4,
                5,
                6,
                7
            ],
            "name" : "Rotator Bone.001",
            "rotation" : [
                -0.7071068286895752,
                -0.00014386828115675598,
                -0.0001438682957086712,
                0.7071068286895752
            ],
            "scale" : [
                1,
                0.9999999403953552,
                1
            ],
            "translation" : [
                -0.00022006870131008327,
                1.7804374694824219,
                -0.0005312561406753957
            ]
        },
        {
            "name" : "Arm Bone.001",
            "rotation" : [
                5.023251219427038e-07,
                1.8606563401135645e-07,
                -0.0026330440305173397,
                0.999996542930603
            ],
            "scale" : [
                1.0000001192092896,
                1.0000001192092896,
                1
            ],
            "translation" : [
                -4.638517125954422e-08,
                0.7298168540000916,
                -5.960464477539063e-08
            ]
        },
        {
            "children" : [
                9
            ],
            "name" : "Paddle Bone.003",
            "rotation" : [
                7.134584620871465e-07,
                3.498854255212791e-07,
                4.0756738428626704e-08,
                1
            ],
            "scale" : [
                5.470003128051758,
                5.470001697540283,
                5.470003128051758
            ],
            "translation" : [
                -1.7076398073356813e-09,
                0.5353870391845703,
                -4.76837158203125e-07
            ]
        },
        {
            "children" : [
                10
            ],
            "name" : "Paddle Bone.002",
            "rotation" : [
                -0.49999940395355225,
                -0.49999988079071045,
                -0.5000002384185791,
                0.5000006556510925
            ],
            "scale" : [
                0.18281525373458862,
                0.18281525373458862,
                0.18281525373458862
            ],
            "translation" : [
                -2.146754503250122,
                0.8207254409790039,
                -0.004103362560272217
            ]
        },
        {
            "name" : "Arm Bone.002",
            "rotation" : [
                5.023242124480021e-07,
                1.8606537821597158e-07,
                -0.0026330065447837114,
                0.999996542930603
            ],
            "scale" : [
                1,
                1.0000003576278687,
                1
            ],
            "translation" : [
                1.8482197106095555e-08,
                0.7298166751861572,
                5.960464477539063e-08
            ]
        },
        {
            "children" : [
                12
            ],
            "name" : "Paddle Bone.005",
            "rotation" : [
                7.134580073397956e-07,
                3.498848855087999e-07,
                8.167094733835256e-08,
                1
            ],
            "scale" : [
                5.470033168792725,
                5.470033168792725,
                5.470033168792725
            ],
            "translation" : [
                0,
                0.5353860855102539,
                0
            ]
        },
        {
            "children" : [
                13
            ],
            "name" : "Paddle Bone.004",
            "rotation" : [
                -0.7071064710617065,
                5.644452016895229e-07,
                -5.644446900987532e-07,
                0.7071070671081543
            ],
            "scale" : [
                0.18281422555446625,
                0.18281422555446625,
                0.18281422555446625
            ],
            "translation" : [
                -0.0037921126931905746,
                0.8207254409790039,
                2.146002769470215
            ]
        },
        {
            "name" : "Arm Bone.003",
            "rotation" : [
                4.705398737314681e-07,
                1.6433597238574293e-07,
                -0.0026330293621867895,
                0.999996542930603
            ],
            "scale" : [
                0.9999998807907104,
                1.000000238418579,
                1
            ],
            "translation" : [
                -4.6199925662904207e-08,
                0.729816734790802,
                -5.96409819308974e-08
            ]
        },
        {
            "children" : [
                15
            ],
            "name" : "Paddle Bone.007",
            "rotation" : [
                7.065875706757652e-07,
                2.8291918852119124e-07,
                1.7823352038703888e-07,
                1
            ],
            "scale" : [
                5.470048904418945,
                5.470048904418945,
                5.470048904418945
            ],
            "translation" : [
                -1.9225265823763493e-09,
                0.5353837013244629,
                -1.8165902809785806e-11
            ]
        },
        {
            "children" : [
                16
            ],
            "name" : "Paddle Bone.006",
            "rotation" : [
                -0.5000001788139343,
                0.500000536441803,
                0.49999943375587463,
                0.4999999403953552
            ],
            "scale" : [
                0.18281371891498566,
                0.18281371891498566,
                0.18281371891498566
            ],
            "translation" : [
                2.1463136672973633,
                0.8207254409790039,
                0.0030407318845391273
            ]
        },
        {
            "children" : [
                3,
                8,
                11,
                14,
                17
            ],
            "name" : "Airbrake Armature",
            "rotation" : [
                0,
                -0.3826834559440613,
                0,
                0.9238795042037964
            ],
            "scale" : [
                0.045973412692546844,
                0.045973412692546844,
                0.045973412692546844
            ],
            "translation" : [
                -0.0006564708892256021,
                1.9643054008483887,
                0
            ]
        }
    ],
    "materials" : [
        {
            "doubleSided" : true,
            "name" : "TextureMaterial",
            "normalTexture" : {
                "index" : 0
            },
            "pbrMetallicRoughness" : {
                "baseColorTexture" : {
                    "index" : 1
                },
                "metallicFactor" : 0,
                "metallicRoughnessTexture" : {
                    "index" : 2
                }
            }
        }
    ],
    "meshes" : [
        {
            "name" : "mesh39",
            "primitives" : [
                {
                    "attributes" : {
                        "POSITION" : 0,
                        "NORMAL" : 1,
                        "TEXCOORD_0" : 2,
                        "TEXCOORD_1" : 3
                    },
                    "indices" : 4,
                    "material" : 0
                }
            ]
        }
    ],
    "textures" : [
        {
            "sampler" : 0,
            "source" : 0
        },
        {
            "sampler" : 0,
            "source" : 1
        },
        {
            "sampler" : 0,
            "source" : 2
        }
    ],
    "images" : [
        {
            "mimeType" : "image/png",
            "name" : "Normal",
            "uri" : "Normal.png"
        },
        {
            "mimeType" : "image/png",
            "name" : "Base Color",
            "uri" : "Base%20Color.png"
        },
        {
            "mimeType" : "image/png",
            "name" : "Roughness",
            "uri" : "Roughness.png"
        }
    ],
    "accessors" : [
        {
            "bufferView" : 0,
            "componentType" : 5126,
            "count" : 115471,
            "max" : [
                0.19190511107444763,
                2.4527478218078613,
                0.19365207850933075
            ],
            "min" : [
                -0.20161356031894684,
                -1.618072509765625,
                -0.19986605644226074
            ],
            "type" : "VEC3"
        },
        {
            "bufferView" : 1,
            "componentType" : 5126,
            "count" : 115471,
            "type" : "VEC3"
        },
        {
            "bufferView" : 2,
            "componentType" : 5126,
            "count" : 115471,
            "type" : "VEC2"
        },
        {
            "bufferView" : 3,
            "componentType" : 5126,
            "count" : 115471,
            "type" : "VEC2"
        },
        {
            "bufferView" : 4,
            "componentType" : 5125,
            "count" : 394896,
            "type" : "SCALAR"
        }
    ],
    "bufferViews" : [
        {
            "buffer" : 0,
            "byteLength" : 1385652,
            "byteOffset" : 0
        },
        {
            "buffer" : 0,
            "byteLength" : 1385652,
            "byteOffset" : 1385652
        },
        {
            "buffer" : 0,
            "byteLength" : 923768,
            "byteOffset" : 2771304
        },
        {
            "buffer" : 0,
            "byteLength" : 923768,
            "byteOffset" : 3695072
        },
        {
            "buffer" : 0,
            "byteLength" : 1579584,
            "byteOffset" : 4618840
        }
    ],
    "samplers" : [
        {
            "magFilter" : 9729,
            "minFilter" : 9987
        }
    ],
    "buffers" : [
        {
            "byteLength" : 6198424,
            "uri" : "Archangel Website Render.bin"
        }
    ]
}
